<?xml version="1.0" encoding="utf-8"?>
<!-- Generated by IcoMoon.io -->
<!DOCTYPE svg PUBLIC "-//W3C//DTD SVG 1.1//EN" "http://www.w3.org/Graphics/SVG/1.1/DTD/svg11.dtd">
<svg version="1.1" xmlns="http://www.w3.org/2000/svg" xmlns:xlink="http://www.w3.org/1999/xlink" width="288" height="152" viewBox="0 0 288 152">
<svg id="icon-facebook" width="16" height="16" viewBox="0 0 16 16" x="0" y="0">
<path fill="#ffffff" d="M9.5 3h2.5v-3h-2.5c-1.93 0-3.5 1.57-3.5 3.5v1.5h-2v3h2v8h3v-8h2.5l0.5-3h-3v-1.5c0-0.271 0.229-0.5 0.5-0.5z"></path>
</svg>
<svg id="icon-twitter" width="16" height="16" viewBox="0 0 16 16" x="136" y="0">
<path fill="#ffffff" d="M16 3.538c-0.588 0.263-1.222 0.438-1.884 0.516 0.678-0.406 1.197-1.050 1.444-1.816-0.634 0.375-1.338 0.65-2.084 0.797-0.6-0.638-1.453-1.034-2.397-1.034-1.813 0-3.281 1.469-3.281 3.281 0 0.256 0.028 0.506 0.084 0.747-2.728-0.138-5.147-1.444-6.766-3.431-0.281 0.484-0.444 1.050-0.444 1.65 0 1.138 0.578 2.144 1.459 2.731-0.538-0.016-1.044-0.166-1.488-0.409 0 0.013 0 0.028 0 0.041 0 1.591 1.131 2.919 2.634 3.219-0.275 0.075-0.566 0.116-0.866 0.116-0.212 0-0.416-0.022-0.619-0.059 0.419 1.303 1.631 2.253 3.066 2.281-1.125 0.881-2.538 1.406-4.078 1.406-0.266 0-0.525-0.016-0.784-0.047 1.456 0.934 3.181 1.475 5.034 1.475 6.037 0 9.341-5.003 9.341-9.341 0-0.144-0.003-0.284-0.009-0.425 0.641-0.459 1.197-1.038 1.637-1.697z"></path>
</svg>
<svg id="icon-vk" width="16" height="16" viewBox="0 0 16 16" x="272" y="0">
<path fill="#ffffff" d="M14.5 0h-13c-0.825 0-1.5 0.675-1.5 1.5v13c0 0.825 0.675 1.5 1.5 1.5h13c0.825 0 1.5-0.675 1.5-1.5v-13c0-0.825-0.675-1.5-1.5-1.5zM12.959 11.2l-1.463 0.022c0 0-0.316 0.063-0.728-0.222-0.547-0.375-1.063-1.353-1.466-1.225-0.406 0.128-0.394 1.006-0.394 1.006s0.003 0.188-0.091 0.287c-0.1 0.109-0.3 0.131-0.3 0.131h-0.653c0 0-1.444 0.088-2.716-1.238-1.388-1.444-2.612-4.309-2.612-4.309s-0.072-0.188 0.006-0.278c0.087-0.103 0.322-0.109 0.322-0.109l1.566-0.009c0 0 0.147 0.025 0.253 0.103 0.088 0.063 0.134 0.184 0.134 0.184s0.253 0.641 0.588 1.219c0.653 1.128 0.959 1.375 1.181 1.256 0.322-0.175 0.225-1.597 0.225-1.597s0.006-0.516-0.162-0.744c-0.131-0.178-0.378-0.231-0.484-0.244-0.088-0.013 0.056-0.216 0.244-0.309 0.281-0.138 0.778-0.147 1.366-0.141 0.456 0.003 0.591 0.034 0.769 0.075 0.541 0.131 0.356 0.634 0.356 1.841 0 0.388-0.069 0.931 0.209 1.109 0.119 0.078 0.412 0.012 1.147-1.234 0.347-0.591 0.609-1.284 0.609-1.284s0.056-0.125 0.144-0.178c0.091-0.053 0.213-0.037 0.213-0.037l1.647-0.009c0 0 0.494-0.059 0.575 0.166 0.084 0.234-0.184 0.781-0.856 1.678-1.103 1.472-1.228 1.334-0.309 2.184 0.875 0.813 1.056 1.209 1.088 1.259 0.356 0.6-0.406 0.647-0.406 0.647z"></path>
</svg>
</svg>
